<?xml version="1.0" encoding="UTF-8" standalone="no"?>
<!DOCTYPE svg PUBLIC "-//W3C//DTD SVG 1.1//EN" "http://www.w3.org/Graphics/SVG/1.1/DTD/svg11.dtd">
<svg width="100%" height="100%" viewBox="0 0 123 1080" version="1.1" xmlns="http://www.w3.org/2000/svg" xmlns:xlink="http://www.w3.org/1999/xlink" xml:space="preserve" xmlns:serif="http://www.serif.com/" style="fill-rule:evenodd;clip-rule:evenodd;stroke-linejoin:round;stroke-miterlimit:2;">
    <rect x="0" y="0" width="123" height="1080"/>
    <rect x="122" y="0" width="1" height="1080" style="fill:rgb(38,38,38);"/>
    <g transform="matrix(0.995918,0,0,1,0,0)">
        <rect x="0" y="122" width="122.5" height="1" style="fill:rgb(38,38,38);"/>
    </g>
    <g transform="matrix(0.956175,0,0,0.974212,2.43426,1.12951)">
        <path d="M55.1,74.9L61.4,78.7L73.8,57.5L61.6,57.5L67.4,47.6L61.1,43.8L48.7,65L60.8,65L55.1,74.9Z" style="fill:rgb(129,129,129);fill-rule:nonzero;"/>
    </g>
    <g transform="matrix(1.07203,0,0,1,-6.06868,0)">
        <path d="M69.8,1014.1C69.5,1013.8 68.9,1013.8 68.6,1014.1L62.6,1019.3L56.6,1014.1C56.3,1013.8 55.7,1013.8 55.4,1014.1C55.2,1014.2 55.1,1014.4 55.1,1014.6C55.1,1014.8 55.2,1015 55.4,1015.1L62,1020.8C62.2,1020.9 62.4,1021 62.6,1021C62.8,1021 63.1,1020.9 63.2,1020.8L69.8,1015.1C70.1,1014.9 70.1,1014.4 69.8,1014.1Z" style="fill:rgb(84,84,87);"/>
    </g>
    <g transform="matrix(1.07203,0,0,1,-6.06868,0)">
        <path d="M69.8,1007.1C69.5,1006.8 68.9,1006.8 68.6,1007.1L62.6,1012.3L56.6,1007.1C56.3,1006.8 55.7,1006.8 55.4,1007.1C55.2,1007.2 55.1,1007.4 55.1,1007.6C55.1,1007.8 55.2,1008 55.4,1008.1L62,1013.8C62.2,1013.9 62.4,1014 62.6,1014C62.8,1014 63.1,1013.9 63.2,1013.8L69.8,1008.1C70.1,1007.9 70.1,1007.4 69.8,1007.1Z" style="fill:rgb(44,44,46);"/>
    </g>
    <g transform="matrix(1.07203,0,0,1,-6.06868,0)">
        <path d="M69.8,1000.2C69.5,999.9 68.9,999.9 68.6,1000.2L62.6,1005.4L56.6,1000.2C56.3,999.9 55.7,999.9 55.4,1000.2C55.2,1000.3 55.1,1000.5 55.1,1000.7C55.1,1000.9 55.2,1001.1 55.4,1001.2L62,1006.9C62.2,1007 62.4,1007.1 62.6,1007.1C62.8,1007.1 63.1,1007 63.2,1006.9L69.8,1001.2C70.1,1001 70.1,1000.5 69.8,1000.2Z" style="fill:rgb(31,31,32);"/>
    </g>
    <g transform="matrix(1,0,0,1,0,54)">
        <g transform="matrix(7.21893,0,0,2.25,-397.763,-351)">
            <rect x="55.1" y="224" width="16.9" height="16"/>
        </g>
        <g transform="matrix(7.21893,0,0,2.25,-397.763,-315)">
            <rect x="55.1" y="224" width="16.9" height="16"/>
        </g>
        <g transform="matrix(7.21893,0,0,2.25,-397.763,-279)">
            <rect x="55.1" y="224" width="16.9" height="16"/>
        </g>
        <g transform="matrix(7.21893,0,0,2.25,-397.763,-243)">
            <rect x="55.1" y="224" width="16.9" height="16"/>
        </g>
        <g transform="matrix(7.21893,0,0,2.25,-397.763,-207)">
            <rect x="55.1" y="224" width="16.9" height="16"/>
        </g>
        <g transform="matrix(7.21893,0,0,2.25,-397.763,-171)">
            <rect x="55.1" y="224" width="16.9" height="16"/>
        </g>
        <g transform="matrix(7.21893,0,0,2.25,-397.763,-135)">
            <rect x="55.1" y="224" width="16.9" height="16"/>
        </g>
        <g transform="matrix(7.21893,0,0,2.25,-397.763,-99)">
            <rect x="55.1" y="224" width="16.9" height="16"/>
        </g>
        <g transform="matrix(7.21893,0,0,2.25,-397.763,-63)">
            <rect x="55.1" y="224" width="16.9" height="16"/>
        </g>
        <g transform="matrix(7.21893,0,0,2.25,-397.763,-27)">
            <rect x="55.1" y="224" width="16.9" height="16"/>
        </g>
        <g transform="matrix(7.21893,0,0,2.25,-397.763,9)">
            <rect x="55.1" y="224" width="16.9" height="16"/>
        </g>
        <g transform="matrix(7.21893,0,0,2.25,-397.763,45)">
            <rect x="55.1" y="224" width="16.9" height="16"/>
        </g>
        <g transform="matrix(7.21893,0,0,2.25,-397.763,81)">
            <rect x="55.1" y="224" width="16.9" height="16"/>
        </g>
        <g transform="matrix(7.21893,0,0,2.25,-397.763,117)">
            <rect x="55.1" y="224" width="16.9" height="16"/>
        </g>
        <g transform="matrix(7.21893,0,0,2.25,-397.763,153)">
            <rect x="55.1" y="224" width="16.9" height="16"/>
        </g>
        <g transform="matrix(7.21893,0,0,2.25,-397.763,189)">
            <rect x="55.1" y="224" width="16.9" height="16"/>
        </g>
        <g transform="matrix(7.21893,0,0,2.25,-397.763,225)">
            <rect x="55.1" y="224" width="16.9" height="16"/>
        </g>
        <g transform="matrix(7.21893,0,0,2.25,-397.763,261)">
            <rect x="55.1" y="224" width="16.9" height="16"/>
        </g>
        <g transform="matrix(7.21893,0,0,2.25,-397.763,297)">
            <rect x="55.1" y="224" width="16.9" height="16"/>
        </g>
        <g transform="matrix(7.21893,0,0,2.25,-397.763,333)">
            <rect x="55.1" y="224" width="16.9" height="16"/>
        </g>
    </g>
    <g transform="matrix(1,0,0,1,0,54)">
        <g transform="matrix(1,0,0,1.01695,-1.4,-183)">
            <path d="M62.4,344.2C64.6,344.2 66.4,345.9 66.4,348.1C66.4,350.3 64.6,352 62.4,352C60.2,352 58.4,350.3 58.4,348.1C58.4,345.9 60.2,344.2 62.4,344.2M62.4,342.2C59.1,342.2 56.4,344.8 56.4,348.1C56.4,351.4 59.1,354 62.4,354C65.7,354 68.4,351.4 68.4,348.1C68.4,344.8 65.7,342.2 62.4,342.2Z" style="fill:rgb(34,34,34);fill-rule:nonzero;"/>
        </g>
        <g transform="matrix(1,0,0,1.01695,-1.4,-147)">
            <path d="M62.4,344.2C64.6,344.2 66.4,345.9 66.4,348.1C66.4,350.3 64.6,352 62.4,352C60.2,352 58.4,350.3 58.4,348.1C58.4,345.9 60.2,344.2 62.4,344.2M62.4,342.2C59.1,342.2 56.4,344.8 56.4,348.1C56.4,351.4 59.1,354 62.4,354C65.7,354 68.4,351.4 68.4,348.1C68.4,344.8 65.7,342.2 62.4,342.2Z" style="fill:rgb(34,34,34);fill-rule:nonzero;"/>
        </g>
        <g transform="matrix(1,0,0,1.01695,-1.4,-111)">
            <path d="M62.4,344.2C64.6,344.2 66.4,345.9 66.4,348.1C66.4,350.3 64.6,352 62.4,352C60.2,352 58.4,350.3 58.4,348.1C58.4,345.9 60.2,344.2 62.4,344.2M62.4,342.2C59.1,342.2 56.4,344.8 56.4,348.1C56.4,351.4 59.1,354 62.4,354C65.7,354 68.4,351.4 68.4,348.1C68.4,344.8 65.7,342.2 62.4,342.2Z" style="fill:rgb(34,34,34);fill-rule:nonzero;"/>
        </g>
        <g transform="matrix(1,0,0,1.01695,-1.4,-75)">
            <path d="M62.4,344.2C64.6,344.2 66.4,345.9 66.4,348.1C66.4,350.3 64.6,352 62.4,352C60.2,352 58.4,350.3 58.4,348.1C58.4,345.9 60.2,344.2 62.4,344.2M62.4,342.2C59.1,342.2 56.4,344.8 56.4,348.1C56.4,351.4 59.1,354 62.4,354C65.7,354 68.4,351.4 68.4,348.1C68.4,344.8 65.7,342.2 62.4,342.2Z" style="fill:rgb(34,34,34);fill-rule:nonzero;"/>
        </g>
        <g transform="matrix(1,0,0,1.01695,-1.4,-39)">
            <path d="M62.4,344.2C64.6,344.2 66.4,345.9 66.4,348.1C66.4,350.3 64.6,352 62.4,352C60.2,352 58.4,350.3 58.4,348.1C58.4,345.9 60.2,344.2 62.4,344.2M62.4,342.2C59.1,342.2 56.4,344.8 56.4,348.1C56.4,351.4 59.1,354 62.4,354C65.7,354 68.4,351.4 68.4,348.1C68.4,344.8 65.7,342.2 62.4,342.2Z" style="fill:rgb(34,34,34);fill-rule:nonzero;"/>
        </g>
        <g transform="matrix(1,0,0,1.01695,-1.4,-3)">
            <path d="M62.4,344.2C64.6,344.2 66.4,345.9 66.4,348.1C66.4,350.3 64.6,352 62.4,352C60.2,352 58.4,350.3 58.4,348.1C58.4,345.9 60.2,344.2 62.4,344.2M62.4,342.2C59.1,342.2 56.4,344.8 56.4,348.1C56.4,351.4 59.1,354 62.4,354C65.7,354 68.4,351.4 68.4,348.1C68.4,344.8 65.7,342.2 62.4,342.2Z" style="fill:rgb(34,34,34);fill-rule:nonzero;"/>
        </g>
        <g transform="matrix(1,0,0,1.01695,-1.4,33)">
            <path d="M62.4,344.2C64.6,344.2 66.4,345.9 66.4,348.1C66.4,350.3 64.6,352 62.4,352C60.2,352 58.4,350.3 58.4,348.1C58.4,345.9 60.2,344.2 62.4,344.2M62.4,342.2C59.1,342.2 56.4,344.8 56.4,348.1C56.4,351.4 59.1,354 62.4,354C65.7,354 68.4,351.4 68.4,348.1C68.4,344.8 65.7,342.2 62.4,342.2Z" style="fill:rgb(34,34,34);fill-rule:nonzero;"/>
        </g>
        <g transform="matrix(1,0,0,1.01695,-1.4,69)">
            <path d="M62.4,344.2C64.6,344.2 66.4,345.9 66.4,348.1C66.4,350.3 64.6,352 62.4,352C60.2,352 58.4,350.3 58.4,348.1C58.4,345.9 60.2,344.2 62.4,344.2M62.4,342.2C59.1,342.2 56.4,344.8 56.4,348.1C56.4,351.4 59.1,354 62.4,354C65.7,354 68.4,351.4 68.4,348.1C68.4,344.8 65.7,342.2 62.4,342.2Z" style="fill:rgb(34,34,34);fill-rule:nonzero;"/>
        </g>
        <g transform="matrix(1,0,0,1.01695,-1.4,105)">
            <path d="M62.4,344.2C64.6,344.2 66.4,345.9 66.4,348.1C66.4,350.3 64.6,352 62.4,352C60.2,352 58.4,350.3 58.4,348.1C58.4,345.9 60.2,344.2 62.4,344.2M62.4,342.2C59.1,342.2 56.4,344.8 56.4,348.1C56.4,351.4 59.1,354 62.4,354C65.7,354 68.4,351.4 68.4,348.1C68.4,344.8 65.7,342.2 62.4,342.2Z" style="fill:rgb(34,34,34);fill-rule:nonzero;"/>
        </g>
        <g transform="matrix(1,0,0,1.01695,-1.4,141)">
            <path d="M62.4,344.2C64.6,344.2 66.4,345.9 66.4,348.1C66.4,350.3 64.6,352 62.4,352C60.2,352 58.4,350.3 58.4,348.1C58.4,345.9 60.2,344.2 62.4,344.2M62.4,342.2C59.1,342.2 56.4,344.8 56.4,348.1C56.4,351.4 59.1,354 62.4,354C65.7,354 68.4,351.4 68.4,348.1C68.4,344.8 65.7,342.2 62.4,342.2Z" style="fill:rgb(34,34,34);fill-rule:nonzero;"/>
        </g>
        <g transform="matrix(1,0,0,1.01695,-1.4,177)">
            <path d="M62.4,344.2C64.6,344.2 66.4,345.9 66.4,348.1C66.4,350.3 64.6,352 62.4,352C60.2,352 58.4,350.3 58.4,348.1C58.4,345.9 60.2,344.2 62.4,344.2M62.4,342.2C59.1,342.2 56.4,344.8 56.4,348.1C56.4,351.4 59.1,354 62.4,354C65.7,354 68.4,351.4 68.4,348.1C68.4,344.8 65.7,342.2 62.4,342.2Z" style="fill:rgb(34,34,34);fill-rule:nonzero;"/>
        </g>
        <g transform="matrix(1,0,0,1.01695,-1.4,213)">
            <path d="M62.4,344.2C64.6,344.2 66.4,345.9 66.4,348.1C66.4,350.3 64.6,352 62.4,352C60.2,352 58.4,350.3 58.4,348.1C58.4,345.9 60.2,344.2 62.4,344.2M62.4,342.2C59.1,342.2 56.4,344.8 56.4,348.1C56.4,351.4 59.1,354 62.4,354C65.7,354 68.4,351.4 68.4,348.1C68.4,344.8 65.7,342.2 62.4,342.2Z" style="fill:rgb(34,34,34);fill-rule:nonzero;"/>
        </g>
        <g transform="matrix(1,0,0,1.01695,-1.4,249)">
            <path d="M62.4,344.2C64.6,344.2 66.4,345.9 66.4,348.1C66.4,350.3 64.6,352 62.4,352C60.2,352 58.4,350.3 58.4,348.1C58.4,345.9 60.2,344.2 62.4,344.2M62.4,342.2C59.1,342.2 56.4,344.8 56.4,348.1C56.4,351.4 59.1,354 62.4,354C65.7,354 68.4,351.4 68.4,348.1C68.4,344.8 65.7,342.2 62.4,342.2Z" style="fill:rgb(34,34,34);fill-rule:nonzero;"/>
        </g>
        <g transform="matrix(1,0,0,1.01695,-1.4,285)">
            <path d="M62.4,344.2C64.6,344.2 66.4,345.9 66.4,348.1C66.4,350.3 64.6,352 62.4,352C60.2,352 58.4,350.3 58.4,348.1C58.4,345.9 60.2,344.2 62.4,344.2M62.4,342.2C59.1,342.2 56.4,344.8 56.4,348.1C56.4,351.4 59.1,354 62.4,354C65.7,354 68.4,351.4 68.4,348.1C68.4,344.8 65.7,342.2 62.4,342.2Z" style="fill:rgb(34,34,34);fill-rule:nonzero;"/>
        </g>
        <g transform="matrix(1,0,0,1.01695,-1.4,321)">
            <path d="M62.4,344.2C64.6,344.2 66.4,345.9 66.4,348.1C66.4,350.3 64.6,352 62.4,352C60.2,352 58.4,350.3 58.4,348.1C58.4,345.9 60.2,344.2 62.4,344.2M62.4,342.2C59.1,342.2 56.4,344.8 56.4,348.1C56.4,351.4 59.1,354 62.4,354C65.7,354 68.4,351.4 68.4,348.1C68.4,344.8 65.7,342.2 62.4,342.2Z" style="fill:rgb(34,34,34);fill-rule:nonzero;"/>
        </g>
        <g transform="matrix(1,0,0,1.01695,-1.4,357)">
            <path d="M62.4,344.2C64.6,344.2 66.4,345.9 66.4,348.1C66.4,350.3 64.6,352 62.4,352C60.2,352 58.4,350.3 58.4,348.1C58.4,345.9 60.2,344.2 62.4,344.2M62.4,342.2C59.1,342.2 56.4,344.8 56.4,348.1C56.4,351.4 59.1,354 62.4,354C65.7,354 68.4,351.4 68.4,348.1C68.4,344.8 65.7,342.2 62.4,342.2Z" style="fill:rgb(34,34,34);fill-rule:nonzero;"/>
        </g>
        <g transform="matrix(1,0,0,1.01695,-1.4,393)">
            <path d="M62.4,344.2C64.6,344.2 66.4,345.9 66.4,348.1C66.4,350.3 64.6,352 62.4,352C60.2,352 58.4,350.3 58.4,348.1C58.4,345.9 60.2,344.2 62.4,344.2M62.4,342.2C59.1,342.2 56.4,344.8 56.4,348.1C56.4,351.4 59.1,354 62.4,354C65.7,354 68.4,351.4 68.4,348.1C68.4,344.8 65.7,342.2 62.4,342.2Z" style="fill:rgb(34,34,34);fill-rule:nonzero;"/>
        </g>
        <g transform="matrix(1,0,0,1.01695,-1.4,429)">
            <path d="M62.4,344.2C64.6,344.2 66.4,345.9 66.4,348.1C66.4,350.3 64.6,352 62.4,352C60.2,352 58.4,350.3 58.4,348.1C58.4,345.9 60.2,344.2 62.4,344.2M62.4,342.2C59.1,342.2 56.4,344.8 56.4,348.1C56.4,351.4 59.1,354 62.4,354C65.7,354 68.4,351.4 68.4,348.1C68.4,344.8 65.7,342.2 62.4,342.2Z" style="fill:rgb(34,34,34);fill-rule:nonzero;"/>
        </g>
        <g transform="matrix(1,0,0,1.01695,-1.4,465)">
            <path d="M62.4,344.2C64.6,344.2 66.4,345.9 66.4,348.1C66.4,350.3 64.6,352 62.4,352C60.2,352 58.4,350.3 58.4,348.1C58.4,345.9 60.2,344.2 62.4,344.2M62.4,342.2C59.1,342.2 56.4,344.8 56.4,348.1C56.4,351.4 59.1,354 62.4,354C65.7,354 68.4,351.4 68.4,348.1C68.4,344.8 65.7,342.2 62.4,342.2Z" style="fill:rgb(34,34,34);fill-rule:nonzero;"/>
        </g>
        <g transform="matrix(1,0,0,1.01695,-1.4,501)">
            <path d="M62.4,344.2C64.6,344.2 66.4,345.9 66.4,348.1C66.4,350.3 64.6,352 62.4,352C60.2,352 58.4,350.3 58.4,348.1C58.4,345.9 60.2,344.2 62.4,344.2M62.4,342.2C59.1,342.2 56.4,344.8 56.4,348.1C56.4,351.4 59.1,354 62.4,354C65.7,354 68.4,351.4 68.4,348.1C68.4,344.8 65.7,342.2 62.4,342.2Z" style="fill:rgb(34,34,34);fill-rule:nonzero;"/>
        </g>
    </g>
</svg>
