<?xml version="1.0" encoding="UTF-8" standalone="no"?>
<!DOCTYPE svg PUBLIC "-//W3C//DTD SVG 1.1//EN" "http://www.w3.org/Graphics/SVG/1.1/DTD/svg11.dtd">
<svg width="100%" height="100%" viewBox="0 0 206 88" version="1.1" xmlns="http://www.w3.org/2000/svg" xmlns:xlink="http://www.w3.org/1999/xlink" xml:space="preserve" xmlns:serif="http://www.serif.com/" style="fill-rule:evenodd;clip-rule:evenodd;stroke-linejoin:round;stroke-miterlimit:2;">
    <g transform="matrix(1,0,0,1,-1714,7.10543e-15)">
        <g transform="matrix(1.5,0,0,1.5,0,0)">
            <g transform="matrix(0.666667,0,0,0.666667,0,0)">
                <rect x="1715" y="0" width="205" height="87.5" style="fill:rgb(163,51,45);fill-opacity:0;"/>
            </g>
        </g>
        <g transform="matrix(1.5,0,0,1.5,0,0)">
            <g transform="matrix(0.63745,0,0,0.649475,1172.29,-10.447)">
                <path d="M55.1,74.9L61.4,78.7L73.8,57.5L61.6,57.5L67.4,47.6L61.1,43.8L48.7,65L60.8,65L55.1,74.9Z" style="fill:rgb(129,129,129);fill-rule:nonzero;"/>
            </g>
        </g>
        <g transform="matrix(1.5,0,0,1.5,0,0)">
            <g transform="matrix(0.666667,0,0,0.682171,848,-1.36434)">
                <rect x="442" y="2" width="1" height="86" style="fill:rgb(52,52,52);"/>
            </g>
        </g>
    </g>
</svg>
