<?xml version="1.0" encoding="UTF-8" standalone="no"?>
<!DOCTYPE svg PUBLIC "-//W3C//DTD SVG 1.1//EN" "http://www.w3.org/Graphics/SVG/1.1/DTD/svg11.dtd">
<svg width="100%" height="100%" viewBox="0 0 620 1080" version="1.1" xmlns="http://www.w3.org/2000/svg" xmlns:xlink="http://www.w3.org/1999/xlink" xml:space="preserve" xmlns:serif="http://www.serif.com/" style="fill-rule:evenodd;clip-rule:evenodd;stroke-linejoin:round;stroke-miterlimit:2;">
    <g transform="matrix(1.5,0,0,1.5,0,0)">
        <g transform="matrix(0.674279,0,0,0.666667,0,0)">
            <rect x="0" y="-0" width="613" height="1080"/>
        </g>
    </g>
    <g transform="matrix(1.5,0,0,1.5,0,0)">
        <g transform="matrix(0.666667,0,0,0.682171,0,-1.36434)">
            <rect x="442" y="2" width="1" height="86" style="fill:rgb(52,52,52);"/>
        </g>
    </g>
    <g transform="matrix(1.5,0,0,1.5,0,0)">
        <g transform="matrix(0.666667,0,0,0.682171,59.3333,-1.36434)">
            <rect x="442" y="2" width="1" height="86" style="fill:rgb(52,52,52);"/>
        </g>
    </g>
    <g transform="matrix(1.5,0,0,1.5,0,0)">
        <g transform="matrix(1,0,0,-1,1.2422,58.1956)">
            <g transform="matrix(0.714687,0,0,0.666667,338.045,-644.796)">
                <path d="M69.8,1014.1C69.5,1013.8 68.9,1013.8 68.6,1014.1L62.6,1019.3L56.6,1014.1C56.3,1013.8 55.7,1013.8 55.4,1014.1C55.2,1014.2 55.1,1014.4 55.1,1014.6C55.1,1014.8 55.2,1015 55.4,1015.1L62,1020.8C62.2,1020.9 62.4,1021 62.6,1021C62.8,1021 63.1,1020.9 63.2,1020.8L69.8,1015.1C70.1,1014.9 70.1,1014.4 69.8,1014.1Z" style="fill:rgb(84,84,87);"/>
            </g>
            <g transform="matrix(0.714687,0,0,0.666667,338.045,-644.796)">
                <path d="M69.8,1007.1C69.5,1006.8 68.9,1006.8 68.6,1007.1L62.6,1012.3L56.6,1007.1C56.3,1006.8 55.7,1006.8 55.4,1007.1C55.2,1007.2 55.1,1007.4 55.1,1007.6C55.1,1007.8 55.2,1008 55.4,1008.1L62,1013.8C62.2,1013.9 62.4,1014 62.6,1014C62.8,1014 63.1,1013.9 63.2,1013.8L69.8,1008.1C70.1,1007.9 70.1,1007.4 69.8,1007.1Z" style="fill:rgb(44,44,46);"/>
            </g>
            <g transform="matrix(0.714687,0,0,0.666667,338.045,-644.796)">
                <path d="M69.8,1000.2C69.5,999.9 68.9,999.9 68.6,1000.2L62.6,1005.4L56.6,1000.2C56.3,999.9 55.7,999.9 55.4,1000.2C55.2,1000.3 55.1,1000.5 55.1,1000.7C55.1,1000.9 55.2,1001.1 55.4,1001.2L62,1006.9C62.2,1007 62.4,1007.1 62.6,1007.1C62.8,1007.1 63.1,1007 63.2,1006.9L69.8,1001.2C70.1,1001 70.1,1000.5 69.8,1000.2Z" style="fill:rgb(31,31,32);"/>
            </g>
        </g>
    </g>
    <g transform="matrix(1.5,0,0,1.5,0,0)">
        <g transform="matrix(1,0,0,1,-58.0911,0.471048)">
            <g transform="matrix(0.714687,0,0,0.666667,338.045,-644.796)">
                <path d="M69.8,1014.1C69.5,1013.8 68.9,1013.8 68.6,1014.1L62.6,1019.3L56.6,1014.1C56.3,1013.8 55.7,1013.8 55.4,1014.1C55.2,1014.2 55.1,1014.4 55.1,1014.6C55.1,1014.8 55.2,1015 55.4,1015.1L62,1020.8C62.2,1020.9 62.4,1021 62.6,1021C62.8,1021 63.1,1020.9 63.2,1020.8L69.8,1015.1C70.1,1014.9 70.1,1014.4 69.8,1014.1Z" style="fill:rgb(84,84,87);"/>
            </g>
            <g transform="matrix(0.714687,0,0,0.666667,338.045,-644.796)">
                <path d="M69.8,1007.1C69.5,1006.8 68.9,1006.8 68.6,1007.1L62.6,1012.3L56.6,1007.1C56.3,1006.8 55.7,1006.8 55.4,1007.1C55.2,1007.2 55.1,1007.4 55.1,1007.6C55.1,1007.8 55.2,1008 55.4,1008.1L62,1013.8C62.2,1013.9 62.4,1014 62.6,1014C62.8,1014 63.1,1013.9 63.2,1013.8L69.8,1008.1C70.1,1007.9 70.1,1007.4 69.8,1007.1Z" style="fill:rgb(44,44,46);"/>
            </g>
            <g transform="matrix(0.714687,0,0,0.666667,338.045,-644.796)">
                <path d="M69.8,1000.2C69.5,999.9 68.9,999.9 68.6,1000.2L62.6,1005.4L56.6,1000.2C56.3,999.9 55.7,999.9 55.4,1000.2C55.2,1000.3 55.1,1000.5 55.1,1000.7C55.1,1000.9 55.2,1001.1 55.4,1001.2L62,1006.9C62.2,1007 62.4,1007.1 62.6,1007.1C62.8,1007.1 63.1,1007 63.2,1006.9L69.8,1001.2C70.1,1001 70.1,1000.5 69.8,1000.2Z" style="fill:rgb(31,31,32);"/>
            </g>
        </g>
    </g>
</svg>
